<svg xmlns="http://www.w3.org/2000/svg" width="117" height="45.995" viewBox="0 0 117 45.995">
  <g id="Group_2" data-name="Group 2" transform="translate(-10.222 -32)">
    <g id="Group_1" data-name="Group 1" transform="translate(10.222 32)">
      <path id="Path_1" data-name="Path 1" d="M193.076,32a6.509,6.509,0,0,1,.167,1.041q.015,11.455.007,22.909v.933h17.184c0-.08.023-.152,0-.183a9.747,9.747,0,0,1-2.317-6.9c.047-1.341.005-2.685.009-4.028a9.287,9.287,0,0,1,8.96-9.619,68.755,68.755,0,0,1,8.384.052,9.254,9.254,0,0,1,8.409,8.929c.039,1.789,0,3.58.013,5.37a9.234,9.234,0,0,1-1.912,5.693c-.133.179-.272.354-.4.533-.011.015.009.053.029.149.246.012.511.035.776.035q6.713,0,13.427,0a8.4,8.4,0,0,0,8.648-8.623c.007-1.224,0-2.449,0-3.7h2.969c-.056,2.82.351,5.641-.868,8.3-2,4.354-5.366,6.861-10.183,6.971-6.01.136-12.026.033-18.1.033l-.2-.692c-2.231,1-4.583.7-6.886.707-8.811.031-17.622,0-26.433,0-1.2,0-2.405.013-3.608.019-.274,0-.548,0-.9,0v-.99q0-12.965.006-25.93c0-.335-.022-.669-.034-1Zm27.917,24.917v-.028c1.342,0,2.689.074,4.025-.015a6.266,6.266,0,0,0,5.85-5.954c.081-1.926.079-3.86,0-5.786a6.088,6.088,0,0,0-5.412-5.9,55.577,55.577,0,0,0-8.622-.041,6.115,6.115,0,0,0-5.7,6,49.3,49.3,0,0,0,0,5.617,6.345,6.345,0,0,0,6.507,6.108C218.756,56.926,219.874,56.917,220.993,56.917Z" transform="translate(-160.006 -32)" fill="#fff"/>
      <path id="Path_2" data-name="Path 2" d="M32.185,62.508l-2.458,1.519a8.885,8.885,0,0,0-6.33-4.135,8.735,8.735,0,0,0-5.8,1.148,8.91,8.91,0,0,0,4.574,16.578c-.013.086.007.215-.044.252-1.058.782-2.123,1.556-3.189,2.332a11.945,11.945,0,0,1-8.281-8.3,11.941,11.941,0,0,1-.1-5.958l.005-.018c1.333-4.8,4.408-7.9,9.278-8.853,5.014-.977,9.11.8,12.128,4.955a2.518,2.518,0,0,1,.18.284A.829.829,0,0,1,32.185,62.508Z" transform="translate(-10.222 -52.644)" fill="#fff"/>
      <path id="Path_3" data-name="Path 3" d="M445.611,239.217V234.36a2.3,2.3,0,0,0-.415.153c-2.4,1.556-4.865.522-5.429-2.306a6.1,6.1,0,0,1,.6-4.144,4.235,4.235,0,0,1,5.66-1.883,1.718,1.718,0,0,1,1.121,1.692c-.012,3.549,0,7.1-.009,10.647a2.9,2.9,0,0,1-.18.7Zm-.028-6.131c0-1.63.017-3.247-.006-4.864a1.318,1.318,0,0,0-1.443-1.47,2.353,2.353,0,0,0-2.312,1.358,5.053,5.053,0,0,0-.343,4.13C442.135,234.25,444,234.648,445.582,233.086Z" transform="translate(-367.553 -193.222)" fill="#fff"/>
      <path id="Path_4" data-name="Path 4" d="M689.361,33.273h3V60.924h-3Z" transform="translate(-575.358 -33.059)" fill="#fff"/>
      <path id="Path_5" data-name="Path 5" d="M591.412,101.107h2.947c.015.28.04.524.04.769,0,3.469.01,6.938,0,10.406a11.41,11.41,0,0,1-8.948,11.207c-.774.177-1.578.22-2.457.337,0-.872,0-1.592,0-2.313,0-.218.025-.437.039-.683.549-.078,1.074-.124,1.587-.229a8.4,8.4,0,0,0,6.784-8.241c.027-3.58.006-7.161.006-10.742Z" transform="translate(-486.845 -89.506)" fill="#fff"/>
      <path id="Path_6" data-name="Path 6" d="M42.862,160.649c1.065-.775,2.131-1.548,3.19-2.332.049-.036.03-.165.042-.25l-2.321-1.947,10.567-2.636.122.152-4.825,9.748-1.4-2.8-7.575,5.59-1.691-2.538Z" transform="translate(-34.149 -133.091)" fill="#fff"/>
      <path id="Path_7" data-name="Path 7" d="M197.347,229.36l-5.785.885a12.508,12.508,0,0,0,.329,1.587,2.593,2.593,0,0,0,2.1,1.937,2.642,2.642,0,0,0,2.552-1.29c.217-.292.273-.875.991-.587a4.391,4.391,0,0,1-.088.757,3.561,3.561,0,0,1-6.59.67,6.2,6.2,0,0,1-.036-5.575,3.6,3.6,0,0,1,4.546-1.791A3.16,3.16,0,0,1,197.347,229.36Zm-1.68-.642a1.844,1.844,0,0,0-1.957-1.946,2.231,2.231,0,0,0-1.99,2.554Z" transform="translate(-159.969 -193.2)" fill="#fff"/>
      <path id="Path_8" data-name="Path 8" d="M526.713,229.467c0-.5.028-.972-.007-1.442a1.155,1.155,0,0,0-.85-1.2,1.385,1.385,0,0,0-1.623.558,6.748,6.748,0,0,0-.342.669c-.349.695-.585.746-1.318.267a1.484,1.484,0,0,1,.695-1.783,3.882,3.882,0,0,1,3.588-.533,1.909,1.909,0,0,1,1.362,1.918c.044,1.9.021,3.8.018,5.7a1.278,1.278,0,0,1-.9,1.282,5.8,5.8,0,0,1-3.775.17,2,2,0,0,1-1.545-1.688,2.163,2.163,0,0,1,.978-2.4,25.481,25.481,0,0,1,2.753-1.181C526.055,229.672,526.374,229.582,526.713,229.467Zm.011.857c-.655.236-1.206.422-1.745.636a2.99,2.99,0,0,0-.651.373,1.623,1.623,0,0,0-.522,2.213,1.836,1.836,0,0,0,2.052.742c.678-.181.86-.472.865-1.4C526.727,232.079,526.724,231.27,526.724,230.324Z" transform="translate(-436.073 -193.255)" fill="#fff"/>
      <path id="Path_9" data-name="Path 9" d="M330.768,215.078l-1.111-.053c-.016-.225-.032-.447-.052-.723l1.049-.1a5.135,5.135,0,0,1,.35-1.5,5.208,5.208,0,0,1,1.129-1.052l.195.08v2.493h1.761v.805h-1.717c0,.635,0,1.209,0,1.784,0,1.368-.007,2.737.011,4.1.017,1.268.3,1.546,1.556,1.649a2.117,2.117,0,0,1,.447.136c.064.613-.384.667-.746.741a2.188,2.188,0,0,1-2.858-2.255c-.048-1.7-.013-3.406-.014-5.109C330.768,215.771,330.768,215.467,330.768,215.078Z" transform="translate(-275.992 -181.49)" fill="#fff"/>
      <path id="Path_10" data-name="Path 10" d="M273.886,235.058H272.4v-8.249a4.918,4.918,0,0,1,4.37-.767,1.356,1.356,0,0,1,.578.813c.045.176-.233.613-.391.626a2.641,2.641,0,0,1-.956-.265c-.047-.016-.08-.075-.12-.115a1.214,1.214,0,0,0-1.376-.331c-.547.2-.613.678-.615,1.169-.005,2.039,0,4.078,0,6.117Z" transform="translate(-228.389 -193.273)" fill="#fff"/>
      <path id="Path_11" data-name="Path 11" d="M392.167,236.356c0-2.922,0-5.766,0-8.61a2.151,2.151,0,0,1,.065-.354h1.4v8.964Z" transform="translate(-328.052 -194.593)" fill="#fff"/>
      <path id="Path_12" data-name="Path 12" d="M525.739,50.862v2.9h-2.9v-2.9Z" transform="translate(-436.79 -47.696)" fill="#fff"/>
      <path id="Path_13" data-name="Path 13" d="M487.509,50.816h2.9V53.7h-2.9Z" transform="translate(-407.389 -47.657)" fill="#fff"/>
      <path id="Path_14" data-name="Path 14" d="M393.322,209.175h-1.741v-1.787h1.741Z" transform="translate(-327.564 -177.947)" fill="#fff"/>
    </g>
    <path id="Path_15" data-name="Path 15" d="M382.352,33.284h2.9v2.889h-2.9Z" transform="translate(-309.663 -1.068)" fill="#fff"/>
    <path id="Path_16" data-name="Path 16" d="M347.907,33.284h2.9v2.889h-2.9Z" transform="translate(-281 -1.068)" fill="#fff"/>
  </g>
</svg>
