<?xml version="1.0" encoding="UTF-8" standalone="no"?>
<!-- Created with Inkscape (http://www.inkscape.org/) -->

<svg
   width="753"
   height="150"
   viewBox="0 0 199.23147 39.687526"
   version="1.1"
   id="svg1"
   xml:space="preserve"
   inkscape:version="1.3 (0e150ed6c4, 2023-07-21)"
   sodipodi:docname="owlp-logo-arabic-white.svg"
   xmlns:inkscape="http://www.inkscape.org/namespaces/inkscape"
   xmlns:sodipodi="http://sodipodi.sourceforge.net/DTD/sodipodi-0.dtd"
   xmlns="http://www.w3.org/2000/svg"
   xmlns:svg="http://www.w3.org/2000/svg"><sodipodi:namedview
     id="namedview1"
     pagecolor="#000000"
     bordercolor="#000000"
     borderopacity="0.25"
     inkscape:showpageshadow="2"
     inkscape:pageopacity="0.0"
     inkscape:pagecheckerboard="0"
     inkscape:deskcolor="#d1d1d1"
     inkscape:document-units="px"
     inkscape:zoom="0.97890839"
     inkscape:cx="442.32944"
     inkscape:cy="259.98347"
     inkscape:window-width="1920"
     inkscape:window-height="991"
     inkscape:window-x="-9"
     inkscape:window-y="-9"
     inkscape:window-maximized="1"
     inkscape:current-layer="layer1" /><defs
     id="defs1" /><g
     inkscape:label="Layer 1"
     inkscape:groupmode="layer"
     id="layer1"><path
       id="text1"
       style="font-size:50.8px;font-family:'Sugo Pro Display Trial';-inkscape-font-specification:'Sugo Pro Display Trial';fill:#ffffff;stroke-width:0.264583"
       d="m 116.04207,2.061123 c -1.15755,0 -2.25723,0.198437 -3.29903,0.595312 -1.02526,0.380338 -1.92649,0.926042 -2.70371,1.637109 -0.77721,0.711067 -1.39733,1.570965 -1.86035,2.579688 -0.44648,0.992186 -0.66972,2.1001326 -0.66972,3.323822 v 19.09961 c 0,1.20716 0.22324,2.30684 0.66972,3.29903 0.46302,0.99218 1.08314,1.84381 1.86035,2.55488 0.77722,0.71107 1.67845,1.26504 2.70371,1.66191 1.02526,0.39688 2.11667,0.59532 3.27422,0.59532 1.15755,0 2.24896,-0.19017 3.27422,-0.57051 1.0418,-0.39688 1.9513,-0.94258 2.72852,-1.63711 0.77721,-0.71107 1.39733,-1.5627 1.86035,-2.55488 0.46302,-1.00873 0.69453,-2.12494 0.69453,-3.34864 v -19.09961 c 0,-1.2236894 -0.23151,-2.331636 -0.69453,-3.323822 -0.44649,-1.008723 -1.0666,-1.868621 -1.86035,-2.579688 -0.77722,-0.711067 -1.68672,-1.256771 -2.72852,-1.637109 -1.02526,-0.396875 -2.1084,-0.595312 -3.24941,-0.595312 z m 13.09687,0.520898 c -0.1819,0 -0.33073,0.082682 -0.44648,0.248047 -0.0992,0.165364 -0.14883,0.380339 -0.14883,0.644922 v 25.821674 c 0,1.12448 0.19844,2.18282 0.59531,3.175 0.39688,0.97565 0.95912,1.83555 1.68672,2.57969 0.74414,0.7276 1.63711,1.30638 2.67891,1.73633 1.05833,0.41341 2.24069,0.62012 3.54707,0.62012 1.4552,0 2.72025,-0.33073 3.79511,-0.99219 1.07487,-0.66146 1.91823,-1.53789 2.53008,-2.6293 0.61185,1.09141 1.43868,1.96784 2.48047,2.6293 1.05833,0.66146 2.32337,0.99219 3.79512,0.99219 1.25677,0 2.39779,-0.20671 3.42304,-0.62012 1.02526,-0.42995 1.89343,-1.00873 2.6045,-1.73633 0.7276,-0.74414 1.28984,-1.60404 1.68672,-2.57969 0.39687,-0.99218 0.59531,-2.05052 0.59531,-3.175 V 3.524599 c 0,-0.23151 -0.0496,-0.446484 -0.14883,-0.644922 -0.0992,-0.198437 -0.28939,-0.297656 -0.57051,-0.297656 h -3.24941 c -0.24805,0 -0.42995,0.099219 -0.5457,0.297656 -0.0992,0.198438 -0.14883,0.413412 -0.14883,0.644922 v 25.548825 c 0,0.5457 -0.0992,1.0666 -0.29766,1.5627 -0.1819,0.49609 -0.43822,0.93431 -0.76894,1.31465 -0.33073,0.3638 -0.73588,0.65319 -1.21543,0.86816 -0.47956,0.21497 -1.00046,0.32246 -1.5627,0.32246 -0.57877,0 -1.10794,-0.10749 -1.5875,-0.32246 -0.46302,-0.21497 -0.86816,-0.50436 -1.21543,-0.86816 -0.33073,-0.38034 -0.59531,-0.81856 -0.79375,-1.31465 -0.1819,-0.4961 -0.27285,-1.017 -0.27285,-1.5627 V 3.47499 c 0,-0.248047 -0.0496,-0.454753 -0.14883,-0.620117 -0.0992,-0.181901 -0.28112,-0.272852 -0.5457,-0.272852 h -3.34863 c -0.18191,0 -0.33073,0.082682 -0.44649,0.248047 -0.11575,0.165364 -0.17363,0.380339 -0.17363,0.644922 v 25.598434 c 0,0.5457 -0.0992,1.0666 -0.29766,1.5627 -0.1819,0.49609 -0.44648,0.93431 -0.79375,1.31465 -0.33073,0.3638 -0.73587,0.65319 -1.21543,0.86816 -0.47955,0.21497 -1.00045,0.32246 -1.56269,0.32246 -0.56224,0 -1.08314,-0.10749 -1.5627,-0.32246 -0.46302,-0.21497 -0.86816,-0.50436 -1.21543,-0.86816 -0.33073,-0.38034 -0.59531,-0.81856 -0.79375,-1.31465 -0.1819,-0.4961 -0.27285,-1.017 -0.27285,-1.5627 V 3.47499 c 0,-0.248047 -0.0496,-0.454753 -0.14883,-0.620117 -0.0992,-0.181901 -0.28112,-0.272852 -0.5457,-0.272852 z m 34.23047,0 c -0.24805,0 -0.43822,0.082682 -0.57051,0.248047 -0.11575,0.165364 -0.17363,0.380339 -0.17363,0.644922 v 32.518944 c 0,0.28112 0.0579,0.50436 0.17363,0.66973 0.13229,0.14882 0.339,0.22324 0.62012,0.22324 h 12.7 c 0.1819,0 0.339,-0.05788 0.47129,-0.17364 0.13229,-0.13229 0.19844,-0.33899 0.19844,-0.62011 v -2.75332 c 0,-0.28112 -0.0661,-0.46302 -0.19844,-0.54571 -0.13229,-0.09921 -0.28939,-0.14882 -0.47129,-0.14882 h -8.80566 V 3.47499 c 0,-0.264583 -0.0661,-0.479558 -0.19844,-0.644922 -0.11576,-0.165365 -0.29766,-0.248047 -0.54571,-0.248047 z m 17.43769,0 c -0.24804,0 -0.44648,0.082682 -0.59531,0.248047 -0.13229,0.165364 -0.19844,0.380339 -0.19844,0.644922 v 32.518944 c 0,0.28112 0.0579,0.50436 0.17364,0.66973 0.11575,0.14882 0.30592,0.22324 0.57051,0.22324 h 3.1998 c 0.26458,0 0.45475,-0.07442 0.57051,-0.22324 0.11575,-0.16537 0.17363,-0.38861 0.17363,-0.66973 v -8.73125 h 4.04316 c 1.20716,0 2.32338,-0.21498 3.34864,-0.64492 1.02526,-0.44649 1.90169,-1.05007 2.62929,-1.81074 0.74414,-0.77722 1.32292,-1.68672 1.73633,-2.72852 0.41341,-1.0418 0.62012,-2.17455 0.62012,-3.39824 v -7.51582 c 0,-1.2071597 -0.20671,-2.3316391 -0.62012,-3.373439 -0.41341,-1.041796 -0.99219,-1.943034 -1.73633,-2.703711 -0.7276,-0.777212 -1.60403,-1.389063 -2.62929,-1.835546 -1.00873,-0.446484 -2.12494,-0.669727 -3.34864,-0.669727 z m -64.74023,3.720703 c 0.56224,0 1.07487,0.115755 1.53789,0.347266 0.47956,0.214973 0.8847,0.51263 1.21543,0.892968 0.34727,0.363802 0.61185,0.802019 0.79375,1.3146469 0.19844,0.4960997 0.29766,1.0169894 0.29766,1.5626991 v 18.77714 c 0,0.54571 -0.0992,1.05834 -0.29766,1.5379 -0.1819,0.47955 -0.44648,0.90123 -0.79375,1.26503 -0.33073,0.34727 -0.73587,0.62839 -1.21543,0.84336 -0.47955,0.19844 -1.00872,0.29766 -1.5875,0.29766 -0.56224,0 -1.08314,-0.10749 -1.56269,-0.32246 -0.46302,-0.21497 -0.8599,-0.50436 -1.19063,-0.86816 -0.33073,-0.36381 -0.59531,-0.79376 -0.79375,-1.28985 -0.1819,-0.49609 -0.27285,-1.01699 -0.27285,-1.56269 v -18.67793 c 0,-0.5457097 0.0909,-1.0665994 0.27285,-1.5626991 0.19844,-0.5126279 0.46302,-0.9508449 0.79375,-1.3146469 0.34727,-0.380338 0.75241,-0.677995 1.21543,-0.892968 0.47956,-0.231511 1.00873,-0.347266 1.5875,-0.347266 z m 68.63457,0.570508 h 3.6959 c 0.61185,0 1.16582,0.115755 1.66191,0.347265 0.4961,0.214974 0.91778,0.520899 1.26504,0.917774 0.34727,0.3803379 0.61185,0.8350936 0.79375,1.3642533 0.1819,0.5291697 0.27285,1.1079497 0.27285,1.7363297 v 7.49102 c 0,0.61185 -0.0909,1.18235 -0.27285,1.71152 -0.1819,0.51263 -0.44648,0.96738 -0.79375,1.36426 -0.34726,0.38034 -0.76894,0.67799 -1.26504,0.89297 -0.47955,0.21497 -1.02526,0.32246 -1.63711,0.32246 h -3.7207 z" /><g
       id="Group_2"
       data-name="Group 2"
       transform="matrix(0.79374998,0,0,0.79374998,-6.2716306,-23.214406)"><g
         id="Group_1"
         data-name="Group 1"
         transform="translate(10.222,32)"><path
           id="Path_1"
           data-name="Path 1"
           d="m 193.076,32 a 6.509,6.509 0 0 1 0.167,1.041 q 0.015,11.455 0.007,22.909 v 0.933 h 17.184 c 0,-0.08 0.023,-0.152 0,-0.183 a 9.747,9.747 0 0 1 -2.317,-6.9 c 0.047,-1.341 0.005,-2.685 0.009,-4.028 a 9.287,9.287 0 0 1 8.96,-9.619 68.755,68.755 0 0 1 8.384,0.052 9.254,9.254 0 0 1 8.409,8.929 c 0.039,1.789 0,3.58 0.013,5.37 a 9.234,9.234 0 0 1 -1.912,5.693 c -0.133,0.179 -0.272,0.354 -0.4,0.533 -0.011,0.015 0.009,0.053 0.029,0.149 0.246,0.012 0.511,0.035 0.776,0.035 q 6.713,0 13.427,0 a 8.4,8.4 0 0 0 8.648,-8.623 c 0.007,-1.224 0,-2.449 0,-3.7 h 2.969 c -0.056,2.82 0.351,5.641 -0.868,8.3 -2,4.354 -5.366,6.861 -10.183,6.971 -6.01,0.136 -12.026,0.033 -18.1,0.033 l -0.2,-0.692 c -2.231,1 -4.583,0.7 -6.886,0.707 -8.811,0.031 -17.622,0 -26.433,0 -1.2,0 -2.405,0.013 -3.608,0.019 -0.274,0 -0.548,0 -0.9,0 v -0.99 q 0,-12.965 0.006,-25.93 c 0,-0.335 -0.022,-0.669 -0.034,-1 z m 27.917,24.917 v -0.028 c 1.342,0 2.689,0.074 4.025,-0.015 a 6.266,6.266 0 0 0 5.85,-5.954 c 0.081,-1.926 0.079,-3.86 0,-5.786 a 6.088,6.088 0 0 0 -5.412,-5.9 55.577,55.577 0 0 0 -8.622,-0.041 6.115,6.115 0 0 0 -5.7,6 49.3,49.3 0 0 0 0,5.617 6.345,6.345 0 0 0 6.507,6.108 c 1.115,0.008 2.233,-10e-4 3.352,-10e-4 z"
           transform="translate(-160.006,-32)"
           fill="#ffffff" /><path
           id="Path_2"
           data-name="Path 2"
           d="m 32.185,62.508 -2.458,1.519 a 8.885,8.885 0 0 0 -6.33,-4.135 8.735,8.735 0 0 0 -5.8,1.148 8.91,8.91 0 0 0 4.574,16.578 c -0.013,0.086 0.007,0.215 -0.044,0.252 -1.058,0.782 -2.123,1.556 -3.189,2.332 a 11.945,11.945 0 0 1 -8.281,-8.3 11.941,11.941 0 0 1 -0.1,-5.958 l 0.005,-0.018 c 1.333,-4.8 4.408,-7.9 9.278,-8.853 5.014,-0.977 9.11,0.8 12.128,4.955 a 2.518,2.518 0 0 1 0.18,0.284 0.829,0.829 0 0 1 0.037,0.196 z"
           transform="translate(-10.222,-52.644)"
           fill="#ffffff" /><path
           id="Path_3"
           data-name="Path 3"
           d="m 445.611,239.217 v -4.857 a 2.3,2.3 0 0 0 -0.415,0.153 c -2.4,1.556 -4.865,0.522 -5.429,-2.306 a 6.1,6.1 0 0 1 0.6,-4.144 4.235,4.235 0 0 1 5.66,-1.883 1.718,1.718 0 0 1 1.121,1.692 c -0.012,3.549 0,7.1 -0.009,10.647 a 2.9,2.9 0 0 1 -0.18,0.7 z m -0.028,-6.131 c 0,-1.63 0.017,-3.247 -0.006,-4.864 a 1.318,1.318 0 0 0 -1.443,-1.47 2.353,2.353 0 0 0 -2.312,1.358 5.053,5.053 0 0 0 -0.343,4.13 c 0.656,2.01 2.521,2.408 4.103,0.846 z"
           transform="translate(-367.553,-193.222)"
           fill="#ffffff" /><path
           id="Path_4"
           data-name="Path 4"
           d="m 689.361,33.273 h 3 v 27.651 h -3 z"
           transform="translate(-575.358,-33.059)"
           fill="#ffffff" /><path
           id="Path_5"
           data-name="Path 5"
           d="m 591.412,101.107 h 2.947 c 0.015,0.28 0.04,0.524 0.04,0.769 0,3.469 0.01,6.938 0,10.406 a 11.41,11.41 0 0 1 -8.948,11.207 c -0.774,0.177 -1.578,0.22 -2.457,0.337 0,-0.872 0,-1.592 0,-2.313 0,-0.218 0.025,-0.437 0.039,-0.683 0.549,-0.078 1.074,-0.124 1.587,-0.229 a 8.4,8.4 0 0 0 6.784,-8.241 c 0.027,-3.58 0.006,-7.161 0.006,-10.742 z"
           transform="translate(-486.845,-89.506)"
           fill="#ffffff" /><path
           id="Path_6"
           data-name="Path 6"
           d="m 42.862,160.649 c 1.065,-0.775 2.131,-1.548 3.19,-2.332 0.049,-0.036 0.03,-0.165 0.042,-0.25 l -2.321,-1.947 10.567,-2.636 0.122,0.152 -4.825,9.748 -1.4,-2.8 -7.575,5.59 -1.691,-2.538 z"
           transform="translate(-34.149,-133.091)"
           fill="#ffffff" /><path
           id="Path_7"
           data-name="Path 7"
           d="m 197.347,229.36 -5.785,0.885 a 12.508,12.508 0 0 0 0.329,1.587 2.593,2.593 0 0 0 2.1,1.937 2.642,2.642 0 0 0 2.552,-1.29 c 0.217,-0.292 0.273,-0.875 0.991,-0.587 a 4.391,4.391 0 0 1 -0.088,0.757 3.561,3.561 0 0 1 -6.59,0.67 6.2,6.2 0 0 1 -0.036,-5.575 3.6,3.6 0 0 1 4.546,-1.791 3.16,3.16 0 0 1 1.981,3.407 z m -1.68,-0.642 a 1.844,1.844 0 0 0 -1.957,-1.946 2.231,2.231 0 0 0 -1.99,2.554 z"
           transform="translate(-159.969,-193.2)"
           fill="#ffffff" /><path
           id="Path_8"
           data-name="Path 8"
           d="m 526.713,229.467 c 0,-0.5 0.028,-0.972 -0.007,-1.442 a 1.155,1.155 0 0 0 -0.85,-1.2 1.385,1.385 0 0 0 -1.623,0.558 6.748,6.748 0 0 0 -0.342,0.669 c -0.349,0.695 -0.585,0.746 -1.318,0.267 a 1.484,1.484 0 0 1 0.695,-1.783 3.882,3.882 0 0 1 3.588,-0.533 1.909,1.909 0 0 1 1.362,1.918 c 0.044,1.9 0.021,3.8 0.018,5.7 a 1.278,1.278 0 0 1 -0.9,1.282 5.8,5.8 0 0 1 -3.775,0.17 2,2 0 0 1 -1.545,-1.688 2.163,2.163 0 0 1 0.978,-2.4 25.481,25.481 0 0 1 2.753,-1.181 c 0.308,-0.132 0.627,-0.222 0.966,-0.337 z m 0.011,0.857 c -0.655,0.236 -1.206,0.422 -1.745,0.636 a 2.99,2.99 0 0 0 -0.651,0.373 1.623,1.623 0 0 0 -0.522,2.213 1.836,1.836 0 0 0 2.052,0.742 c 0.678,-0.181 0.86,-0.472 0.865,-1.4 0.004,-0.809 0.001,-1.618 0.001,-2.564 z"
           transform="translate(-436.073,-193.255)"
           fill="#ffffff" /><path
           id="Path_9"
           data-name="Path 9"
           d="m 330.768,215.078 -1.111,-0.053 c -0.016,-0.225 -0.032,-0.447 -0.052,-0.723 l 1.049,-0.1 a 5.135,5.135 0 0 1 0.35,-1.5 5.208,5.208 0 0 1 1.129,-1.052 l 0.195,0.08 v 2.493 h 1.761 v 0.805 h -1.717 c 0,0.635 0,1.209 0,1.784 0,1.368 -0.007,2.737 0.011,4.1 0.017,1.268 0.3,1.546 1.556,1.649 a 2.117,2.117 0 0 1 0.447,0.136 c 0.064,0.613 -0.384,0.667 -0.746,0.741 a 2.188,2.188 0 0 1 -2.858,-2.255 c -0.048,-1.7 -0.013,-3.406 -0.014,-5.109 0,-0.303 0,-0.607 0,-0.996 z"
           transform="translate(-275.992,-181.49)"
           fill="#ffffff" /><path
           id="Path_10"
           data-name="Path 10"
           d="M 273.886,235.058 H 272.4 v -8.249 a 4.918,4.918 0 0 1 4.37,-0.767 1.356,1.356 0 0 1 0.578,0.813 c 0.045,0.176 -0.233,0.613 -0.391,0.626 a 2.641,2.641 0 0 1 -0.956,-0.265 c -0.047,-0.016 -0.08,-0.075 -0.12,-0.115 a 1.214,1.214 0 0 0 -1.376,-0.331 c -0.547,0.2 -0.613,0.678 -0.615,1.169 -0.005,2.039 0,4.078 0,6.117 z"
           transform="translate(-228.389,-193.273)"
           fill="#ffffff" /><path
           id="Path_11"
           data-name="Path 11"
           d="m 392.167,236.356 c 0,-2.922 0,-5.766 0,-8.61 a 2.151,2.151 0 0 1 0.065,-0.354 h 1.4 v 8.964 z"
           transform="translate(-328.052,-194.593)"
           fill="#ffffff" /><path
           id="Path_12"
           data-name="Path 12"
           d="m 525.739,50.862 v 2.9 h -2.9 v -2.9 z"
           transform="translate(-436.79,-47.696)"
           fill="#ffffff" /><path
           id="Path_13"
           data-name="Path 13"
           d="m 487.509,50.816 h 2.9 V 53.7 h -2.9 z"
           transform="translate(-407.389,-47.657)"
           fill="#ffffff" /><path
           id="Path_14"
           data-name="Path 14"
           d="m 393.322,209.175 h -1.741 v -1.787 h 1.741 z"
           transform="translate(-327.564,-177.947)"
           fill="#ffffff" /></g><path
         id="Path_15"
         data-name="Path 15"
         d="m 382.352,33.284 h 2.9 v 2.889 h -2.9 z"
         transform="translate(-309.663,-1.068)"
         fill="#ffffff" /><path
         id="Path_16"
         data-name="Path 16"
         d="m 347.907,33.284 h 2.9 v 2.889 h -2.9 z"
         transform="translate(-281,-1.068)"
         fill="#ffffff" /></g></g></svg>
